<?xml version="1.0" encoding="UTF-8" standalone="no"?>
<!-- Created with Inkscape (http://www.inkscape.org/) -->

<svg
   width="100"
   height="100"
   viewBox="0 0 100 100.00001"
   version="1.1"
   id="svg135"
   sodipodi:docname="Logo.svg"
   inkscape:version="1.2.1 (9c6d41e410, 2022-07-14)"
   inkscape:export-filename="Logo.png"
   inkscape:export-xdpi="96"
   inkscape:export-ydpi="96"
   xmlns:inkscape="http://www.inkscape.org/namespaces/inkscape"
   xmlns:sodipodi="http://sodipodi.sourceforge.net/DTD/sodipodi-0.dtd"
   xmlns="http://www.w3.org/2000/svg"
   xmlns:svg="http://www.w3.org/2000/svg">
  <sodipodi:namedview
     id="namedview137"
     pagecolor="#ffffff"
     bordercolor="#000000"
     borderopacity="0.25"
     inkscape:showpageshadow="2"
     inkscape:pageopacity="0.0"
     inkscape:pagecheckerboard="0"
     inkscape:deskcolor="#d1d1d1"
     inkscape:document-units="px"
     showgrid="false"
     inkscape:zoom="5.908137"
     inkscape:cx="88.437354"
     inkscape:cy="57.039978"
     inkscape:window-width="1920"
     inkscape:window-height="1009"
     inkscape:window-x="-8"
     inkscape:window-y="-8"
     inkscape:window-maximized="1"
     inkscape:current-layer="layer1" />
  <defs
     id="defs132" />
  <g
     inkscape:label="レイヤー 1"
     inkscape:groupmode="layer"
     id="layer1">
    <path
       style="fill:#ffc800;stroke-width:3;stroke-opacity:0.614325;fill-opacity:1"
       d="m 52.808525,44.514879 c -1.73066,-1.403512 -3.38101,-2.836894 -4.569968,-4.739227 -0.384962,-0.615939 -0.487262,-1.20362 -0.846291,-1.861839 -0.135082,-0.247651 -0.381616,-0.424717 -0.507774,-0.677032 -0.208064,-0.416129 -0.179521,-0.91683 -0.338516,-1.354065 -0.146839,-0.403807 -0.384308,-0.77325 -0.507774,-1.184806 -0.113484,-0.37828 0.04361,-0.792287 0,-1.184807 -0.242936,-2.186424 -0.194057,-4.251918 0.169258,-6.431808 0.05642,-0.338516 0.05198,-0.693025 0.169258,-1.015548 0.112426,-0.309172 0.385595,-0.540842 0.507774,-0.846291 0.106843,-0.267107 0.07829,-0.57337 0.169258,-0.84629 0.451853,-1.355557 0.40682,-0.836409 0.846291,-1.861839 0.119683,-0.279262 0.27893,-0.548363 0.338516,-0.846291 0.03319,-0.165971 -0.08708,-0.362636 0,-0.507774 0.10466,-0.174434 0.394935,-0.169258 0.507774,-0.338516 0.129036,-0.193554 0.06523,-0.468968 0.169258,-0.677032 0.21705,-0.4341 0.596587,-0.768633 0.846291,-1.184807 0.977854,-1.629758 2.216885,-3.030779 3.892936,-4.062194 0.979727,-0.602909 2.72331,-1.732505 3.892936,-2.200356 1.181838,-0.472735 2.473703,-0.60591 3.723678,-0.84629 4.811675,-0.925322 10.056116,-1.366847 14.556196,1.015548 1.449093,0.767167 2.117024,1.943517 3.215904,3.215904 1.084639,1.255898 2.451111,2.522995 3.385162,3.892936 1.248012,1.830418 2.101862,3.971356 2.708129,6.093292 0.274654,0.961287 0.642387,1.898648 0.846291,2.877387 0.421159,2.021563 0.338516,3.875676 0.338516,5.924034 0,0.451355 0.06383,0.907246 0,1.354064 -0.05046,0.353242 -0.240488,0.672451 -0.338516,1.015549 -0.491899,1.721646 -0.963509,3.271292 -2.031097,4.739227 -0.863816,1.187747 -1.831019,1.948362 -3.046646,2.708129 -1.724687,1.077929 -3.939623,2.765034 -5.924033,3.385162 -0.496483,0.155151 -1.024299,0.191744 -1.523323,0.338516 -0.46246,0.136018 -0.880691,0.416741 -1.354065,0.507775 -1.7051,0.327903 -3.226988,0.338516 -4.908485,0.338516 -0.902709,0 -1.81239,0.111967 -2.708129,0 -1.96607,-0.245759 -4.446813,-0.936025 -6.26255,-1.692581 -1.07238,-0.446826 -2.007548,-1.173033 -3.046645,-1.692581 -0.271752,-0.135876 -0.577428,-0.19701 -0.846291,-0.338516 -0.129062,-0.06793 -5.247001,-3.073691 -5.247001,-3.55442"
       id="path316" />
    <path
       style="fill:#ffc800;stroke-width:3;stroke-opacity:0.614325;fill-opacity:1"
       d="m 48.238557,41.298975 c -0.564194,0.620613 -1.133317,1.23678 -1.692581,1.861839 -1.496502,1.672561 -2.850923,3.450466 -4.40071,5.077743 -3.219628,3.380609 -6.624691,6.58113 -9.81697,9.986228 -0.436568,0.465672 -0.90271,0.90271 -1.354065,1.354064 -1.015548,1.184807 -2.009917,2.388101 -3.046645,3.55442 -1.239063,1.393946 -2.707264,2.622689 -4.062195,3.892937 -1.800314,1.687794 -3.290878,3.736824 -4.908484,5.585517 -1.335916,1.52676 -2.640283,2.836536 -3.723678,4.569968 -0.331848,0.530957 -0.909206,0.972122 -1.184807,1.523323 -0.192509,0.385018 -0.262741,0.817256 -0.507774,1.184807 -0.15648,0.234718 -0.396651,0.417744 -0.507775,0.677032 -0.06667,0.155573 0,0.338516 0,0.507774 0,0.741871 -1.212762,2.510917 -0.677032,3.046646 0.285092,0.285092 2.056024,-0.819555 2.369613,-1.015548 0.278974,-0.174359 0.583108,-0.310388 0.846291,-0.507775 0.41011,-0.307583 2.796722,-2.935299 3.046645,-3.385162 0.147552,-0.265593 0.175399,-0.589962 0.338517,-0.84629 1.084054,-1.703514 2.701459,-3.104562 4.062194,-4.569969 0.669679,-0.488401 0.990589,-1.262514 1.523323,-1.861839 0.95164,-1.070595 2.11463,-1.959294 3.046645,-3.046645 0.367173,-0.428368 0.65828,-0.917403 1.015549,-1.354065 1.011465,-1.236236 2.469349,-2.548184 3.55442,-3.723678 0.634787,-0.687686 1.401961,-1.154061 2.031097,-1.861839 1.640322,-1.845362 3.450477,-3.556527 5.077743,-5.416259 0.762284,-0.871183 1.424394,-1.84595 2.200355,-2.70813 0.533761,-0.593067 1.153427,-1.104413 1.692581,-1.692581 1.33197,-1.453058 2.550284,-3.005443 3.723678,-4.569968 0.521584,-0.695445 1.170997,-1.335652 1.692581,-2.031097 0.0757,-0.100926 0.08005,-0.24931 0.169258,-0.338517 0.08921,-0.08921 0.259706,-0.07074 0.338516,-0.169258 0.15762,-0.197025 0.176988,-0.483198 0.338517,-0.677032 0.130228,-0.156274 0.363932,-0.194674 0.507774,-0.338516 0.510028,-0.510028 0.9213,-1.28482 1.354065,-1.861839 0.184389,-0.245853 1.015548,-1.045002 1.015548,-1.354065"
       id="path320" />
    <path
       style="fill:#ffc800;stroke-width:3;stroke-opacity:0.614325;fill-opacity:1"
       d="m 19.633939,77.689466 c 2.190569,0.943616 3.80115,2.701994 5.585517,4.231452 1.252103,1.073231 2.240772,1.989772 3.385162,3.215904 0.713194,0.764136 1.211367,1.725781 1.861839,2.538871 0.452017,0.565021 0.615172,0.68677 1.015549,1.354065 0.116926,0.194877 0.406394,0.305015 0.507774,0.507774 0.523834,1.047669 -2.524925,4.908485 -2.877388,4.908485 -0.228318,0 -1.492512,-1.425823 -1.692581,-1.692581 -0.151389,-0.201852 -0.160102,-0.498619 -0.338516,-0.677032 -0.454867,-0.454868 -1.037203,-0.763504 -1.523323,-1.184807 -3.828057,-3.31765 3.38256,2.381658 -3.046645,-2.70813 -2.085502,-1.651022 -4.357593,-3.079854 -6.431808,-4.739226 -0.311524,-0.249219 -0.546054,-0.583584 -0.84629,-0.846291 -0.153092,-0.133955 -0.325828,-0.247542 -0.507775,-0.338516 -0.05046,-0.02523 -0.144026,0.05046 -0.169258,0 -0.05046,-0.100926 0,-0.225677 0,-0.338516"
       id="path322" />
    <path
       style="fill:#ffc800;stroke-width:3;stroke-opacity:0.614325;fill-opacity:1"
       d="m 34.867168,60.763656 c 0.507774,0.169258 1.051051,0.255896 1.523323,0.507775 0.388808,0.207364 0.666279,0.577621 1.015548,0.84629 1.417072,1.090055 2.775546,2.357463 4.231453,3.385162 0.309199,0.218259 0.70064,0.297835 1.015548,0.507774 1.710989,1.14066 0.233577,0.128638 0.507774,0.677033 0.352206,0.704411 -0.01168,-0.180943 0.338517,0.169258 0.03989,0.03989 -0.04694,0.137962 0,0.169258 0.148449,0.09897 0.348196,0.08947 0.507774,0.169258 0.562909,0.281454 -0.08089,0.03834 0.169258,0.338516 0.833123,0.999748 2.333144,2.044187 2.031097,3.55442 -0.09124,0.456211 -0.175157,0.918441 -0.338516,1.354065 -0.0998,0.266125 -1.170587,2.545981 -1.861839,2.200355 -0.613272,-0.306636 -1.110528,-0.835575 -1.692581,-1.184807 -1.869601,-1.12176 -0.191883,0.258457 -2.369613,-1.523322 -0.659227,-0.539368 -1.103963,-1.273221 -1.692581,-1.86184 -1.012471,-1.01247 -2.248037,-1.855285 -3.385162,-2.708129 -0.479482,-0.359611 -0.176547,-0.04414 -0.677033,-0.169258 -0.315411,-0.07885 -0.576604,-0.417879 -0.84629,-0.507774 -0.107048,-0.03568 -0.23759,0.05046 -0.338516,0 -0.523589,-0.261795 -1.753661,-1.692581 -2.200356,-1.692581"
       id="path324" />
  </g>
</svg>
